HIERARCHY
ROOT Hips
{
	OFFSET -0.001795 -0.223333 0.028219
	CHANNELS 6 Xposition Yposition Zposition Zrotation Yrotation Xrotation 
	JOINT LeftUpLeg
	{
		OFFSET 0.069520 -0.091406 -0.006815
		CHANNELS 3 Zrotation Yrotation Xrotation
		JOINT LeftLeg
		{
			OFFSET 0.034277 -0.375199 -0.004496
			CHANNELS 3 Zrotation Yrotation Xrotation
			JOINT LeftFoot
			{
				OFFSET -0.013596 -0.397961 -0.043693
				CHANNELS 3 Zrotation Yrotation Xrotation
				JOINT LeftToe
				{
					OFFSET 0.026358 -0.055791 0.119288
					CHANNELS 3 Zrotation Yrotation Xrotation
					End Site
					{
						OFFSET 0.000000 0.000000 0.000000
					}
				}
			}
		}
	}
	JOINT RightUpLeg
	{
		OFFSET -0.067670 -0.090522 -0.004320
		CHANNELS 3 Zrotation Yrotation Xrotation
		JOINT RightLeg
		{
			OFFSET -0.038290 -0.382569 -0.008850
			CHANNELS 3 Zrotation Yrotation Xrotation
			JOINT RightFoot
			{
				OFFSET 0.015774 -0.398415 -0.042312
				CHANNELS 3 Zrotation Yrotation Xrotation
				JOINT RightToe
				{
					OFFSET -0.025372 -0.048144 0.123348
					CHANNELS 3 Zrotation Yrotation Xrotation
					End Site
					{
						OFFSET 0.000000 0.000000 0.000000
					}
				}
			}
		}
	}
	JOINT Spine
	{
		OFFSET -0.002533 0.108963 -0.026696
		CHANNELS 3 Zrotation Yrotation Xrotation
		JOINT Spine1
		{
			OFFSET 0.005487 0.135180 0.001092
			CHANNELS 3 Zrotation Yrotation Xrotation
			JOINT Spine2
			{
				OFFSET 0.001457 0.052922 0.025425
				CHANNELS 3 Zrotation Yrotation Xrotation
				JOINT Neck
				{
					OFFSET -0.002778 0.213870 -0.042857
					CHANNELS 3 Zrotation Yrotation Xrotation
					JOINT Head
					{
						OFFSET 0.005152 0.064970 0.051349
						CHANNELS 3 Zrotation Yrotation Xrotation
						End Site
						{
							OFFSET 0.000000 0.000000 0.000000
						}
					}
				}
				JOINT LeftShoulder
				{
					OFFSET 0.078845 0.121749 -0.034090
					CHANNELS 3 Zrotation Yrotation Xrotation
					JOINT LeftArm
					{
						OFFSET 0.090977 0.030469 -0.008868
						CHANNELS 3 Zrotation Yrotation Xrotation
						JOINT LeftForeArm
						{
							OFFSET 0.259612 -0.012772 -0.027456
							CHANNELS 3 Zrotation Yrotation Xrotation
							JOINT LeftHand
							{
								OFFSET 0.249234 0.008986 -0.001171
								CHANNELS 3 Zrotation Yrotation Xrotation
								End Site
								{
									OFFSET 0.000000 0.000000 0.000000
								}
							}
						}
					}
				}
				JOINT RightShoulder
				{
					OFFSET -0.081759 0.118833 -0.038615
					CHANNELS 3 Zrotation Yrotation Xrotation
					JOINT RightArm
					{
						OFFSET -0.096012 0.032551 -0.009143
						CHANNELS 3 Zrotation Yrotation Xrotation
						JOINT RightForeArm
						{
							OFFSET -0.253742 -0.013329 -0.021401
							CHANNELS 3 Zrotation Yrotation Xrotation
							JOINT RightHand
							{
								OFFSET -0.255298 0.007772 -0.005559
								CHANNELS 3 Zrotation Yrotation Xrotation
								End Site
								{
									OFFSET 0.000000 0.000000 0.000000
								}
							}
						}
					}
				}
			}
		}
	}
}
MOTION
Frames: 13
Frame Time: 0.050000
0.000000 0.351439 0.000000 -0.351162 -12.847988 -11.834275 15.239802 11.054318 -76.283520 -3.914066 4.707773 154.399610 3.754142 2.312302 -14.024611 0.000000 0.000000 0.000000 -33.043365 -8.085405 -76.148530 19.804765 -49.648387 137.153220 -10.931597 -37.005943 -27.907061 0.000000 0.000000 0.000000 5.813313 -2.291214 87.081661 -8.608071 2.158132 -30.495683 -2.152841 4.214223 31.470222 14.120751 -10.953741 -12.154254 0.000000 0.000000 0.000000 -5.953930 -23.911556 8.441265 -50.655037 -37.182593 6.902969 74.019193 -75.336066 -54.113667 0.000000 0.000000 0.000000 7.663613 15.489198 6.274406 31.758148 48.569334 7.109411 -83.011382 62.450854 -49.804752 0.000000 0.000000 0.000000 
-0.001424 0.348517 0.001361 -1.736247 -13.445940 -11.361928 12.770926 9.480173 -77.437204 -2.405097 -7.966301 156.171137 2.249866 -3.147498 -14.021390 0.000000 0.000000 0.000000 -33.510577 -8.282885 -77.520589 23.831813 -55.715441 133.287628 -13.371816 -38.442095 -18.267460 0.000000 0.000000 0.000000 6.154360 -2.242832 84.990978 -9.894191 2.313230 -31.687204 0.397551 6.192198 34.959842 13.438088 -10.483466 -11.335719 0.000000 0.000000 0.000000 -5.395060 -25.070235 8.660054 -48.215202 -38.564596 6.555345 71.799017 -73.408472 -51.062199 0.000000 0.000000 0.000000 7.311303 13.958805 5.801538 35.898836 45.835897 7.426585 -88.112646 66.267027 -55.989629 0.000000 0.000000 0.000000 
-0.002283 0.349295 0.001930 -0.437861 -12.632808 -11.834684 11.218937 7.828508 -77.451869 -2.541349 -5.455379 155.765786 3.184561 -1.839814 -16.394575 0.000000 0.000000 0.000000 -33.776415 -8.944544 -78.636358 22.168462 -54.444723 135.252175 -13.627206 -38.319956 -16.942800 0.000000 0.000000 0.000000 7.233425 -3.381466 83.475021 -8.540978 2.156873 -30.332209 -3.673488 6.315151 35.098768 14.916346 -14.512580 -4.860989 0.000000 0.000000 0.000000 -6.409731 -26.277409 9.260934 -45.587303 -36.054272 4.842757 65.805794 -71.585564 -44.913648 0.000000 0.000000 0.000000 11.826195 16.403363 7.689483 30.560869 43.810934 4.829651 -85.699620 66.936706 -55.422553 0.000000 0.000000 0.000000 
-0.002378 0.348825 0.001933 -0.069150 -13.630716 -12.780142 10.895315 8.108166 -77.232153 -2.807203 -3.603402 157.657306 2.240309 -2.130350 -12.602056 0.000000 0.000000 0.000000 -32.698265 -7.575205 -78.599558 21.735174 -53.862876 135.906892 -13.509444 -37.531483 -16.395552 0.000000 0.000000 0.000000 7.840158 -3.394129 84.444844 -10.629015 2.639443 -29.780114 -3.568647 5.949720 34.636949 14.543129 -14.469017 -3.932839 0.000000 0.000000 0.000000 -3.998024 -25.431947 8.489550 -46.324407 -36.137766 5.038316 69.112211 -71.989340 -47.824893 0.000000 0.000000 0.000000 11.834536 13.587866 6.429394 32.237223 42.597266 4.919569 -90.986535 69.247781 -62.145522 0.000000 0.000000 0.000000 
-0.002279 0.352549 0.001435 0.572702 -13.783119 -12.753870 10.585859 8.017052 -77.356579 -3.216036 1.287660 157.292726 3.002695 0.514633 -12.588805 0.000000 0.000000 0.000000 -32.489168 -7.149492 -77.653148 19.898103 -50.315146 137.368636 -12.413241 -35.230395 -18.269544 0.000000 0.000000 0.000000 7.273720 -2.731408 84.423383 -10.357699 2.497611 -30.654627 -2.896742 6.954671 35.994971 15.547894 -14.707649 -5.957161 0.000000 0.000000 0.000000 -1.881882 -23.752312 7.561253 -49.818951 -36.239883 5.441655 64.267661 -73.585218 -44.840200 0.000000 0.000000 0.000000 11.911365 12.903968 6.315687 32.146131 42.467619 4.750666 -86.996384 69.372716 -58.239579 0.000000 0.000000 0.000000 
-0.001809 0.356152 0.000625 0.597719 -13.454996 -12.672661 11.009259 8.251936 -77.854725 -3.554402 4.062140 157.042406 3.496745 1.974868 -13.029151 0.000000 0.000000 0.000000 -31.870228 -6.862448 -77.048332 19.307433 -48.483078 137.532027 -11.462801 -33.852053 -21.242691 0.000000 0.000000 0.000000 7.569059 -3.192507 84.654409 -10.878736 2.623451 -30.637334 -2.207375 7.697180 35.515310 15.838554 -14.643995 -6.628713 0.000000 0.000000 0.000000 -2.017908 -23.734032 7.555743 -49.916305 -36.275703 5.446158 60.657391 -74.684724 -43.016145 0.000000 0.000000 0.000000 10.703714 11.672640 5.650043 33.978310 41.274900 5.001514 -87.347697 70.912821 -59.511156 0.000000 0.000000 0.000000 
-0.001618 0.362484 -0.000220 0.910823 -13.373143 -12.169874 11.538940 8.622417 -77.520882 -3.692737 5.228679 155.859760 4.012336 2.377808 -15.019349 0.000000 0.000000 0.000000 -31.963102 -6.899290 -76.588495 19.270047 -47.736176 137.164386 -11.365639 -33.442401 -21.192597 0.000000 0.000000 0.000000 7.476717 -3.099249 84.146836 -10.243128 2.482909 -30.824459 -2.141952 8.346344 35.820225 16.328277 -15.141717 -6.474494 0.000000 0.000000 0.000000 -1.387711 -22.896439 7.216511 -50.028197 -36.604464 5.465174 55.495451 -74.410936 -38.758249 0.000000 0.000000 0.000000 11.094340 11.977747 5.934371 31.774315 40.568810 4.198692 -79.785448 70.487210 -52.750460 0.000000 0.000000 0.000000 
-0.001846 0.366474 -0.000844 1.212986 -13.053537 -12.470281 12.290437 9.038231 -77.277519 -4.109797 8.156012 154.984958 4.441176 4.519634 -14.200410 0.000000 0.000000 0.000000 -31.309572 -6.627935 -76.481572 18.126200 -45.475727 138.235140 -10.815367 -31.991328 -22.083446 0.000000 0.000000 0.000000 7.354483 -3.178461 84.451938 -9.955134 2.419130 -30.996504 -1.731779 8.590885 36.060635 16.850660 -16.194671 -5.552499 0.000000 0.000000 0.000000 -2.359480 -22.485130 7.210536 -48.238892 -37.271785 5.322613 49.613759 -73.556322 -33.730363 0.000000 0.000000 0.000000 11.346039 12.326391 6.176602 30.026488 39.472777 3.404346 -73.416294 69.133077 -46.501896 0.000000 0.000000 0.000000 
-0.002387 0.370066 -0.001119 1.583568 -12.493098 -13.188731 12.669532 8.865875 -76.298316 -4.400623 10.062075 154.098554 4.863932 5.629413 -14.815805 0.000000 0.000000 0.000000 -30.162517 -6.108045 -75.985500 16.878495 -42.619042 139.401112 -10.306748 -30.115198 -21.833810 0.000000 0.000000 0.000000 7.571716 -3.680835 85.005095 -10.055097 2.515063 -30.406363 -1.873687 8.254658 35.710536 17.039864 -16.384283 -5.764788 0.000000 0.000000 0.000000 -2.099018 -22.671973 7.209362 -46.549905 -38.040066 5.389568 46.615163 -71.459424 -30.459321 0.000000 0.000000 0.000000 11.214742 12.581388 6.204317 28.442148 39.158037 3.007769 -65.239036 66.822423 -38.865112 0.000000 0.000000 0.000000 
-0.002958 0.373196 -0.001315 1.914899 -12.378010 -13.944151 13.064372 8.994815 -75.430956 -4.579849 11.088307 153.435891 5.152008 6.094285 -15.765050 0.000000 0.000000 0.000000 -29.039091 -5.369890 -75.663323 15.949534 -40.437993 140.434832 -10.310623 -29.826900 -20.641966 0.000000 0.000000 0.000000 7.261886 -3.487812 85.735518 -9.748339 2.443917 -30.631833 -1.680585 8.474221 36.272966 17.487947 -16.906166 -5.955118 0.000000 0.000000 0.000000 -1.881508 -22.526785 7.104928 -45.327418 -38.134862 5.066605 45.283553 -69.939724 -28.852103 0.000000 0.000000 0.000000 11.466018 12.792865 6.381164 26.236097 38.345157 2.265033 -60.576751 64.869286 -34.369147 0.000000 0.000000 0.000000 
-0.003385 0.375908 -0.001604 2.152069 -11.628771 -14.621110 13.036357 8.440281 -74.777100 -4.811740 12.258039 152.684246 5.493484 6.910056 -16.505382 0.000000 0.000000 0.000000 -27.741847 -4.862450 -75.216210 14.668423 -37.016208 141.624566 -9.746939 -28.023238 -21.063171 0.000000 0.000000 0.000000 7.305147 -3.970550 86.467232 -10.203595 2.550803 -30.880796 -1.547164 7.850535 36.723948 17.688529 -17.427340 -5.755338 0.000000 0.000000 0.000000 -1.572358 -23.178730 7.232402 -44.405223 -38.534754 5.052439 42.136786 -66.891251 -24.999964 0.000000 0.000000 0.000000 11.596936 12.726038 6.329682 24.366443 37.816606 1.690782 -55.287475 63.331094 -30.212376 0.000000 0.000000 0.000000 
-0.003735 0.377592 -0.001907 2.437289 -11.297477 -15.583306 13.079517 8.122330 -73.672151 -5.084287 13.794829 151.978814 5.934505 8.123760 -17.271666 0.000000 0.000000 0.000000 -26.304068 -4.022672 -74.592604 13.819177 -34.329234 142.456693 -9.300867 -27.254565 -23.005886 0.000000 0.000000 0.000000 7.567255 -4.415036 87.190534 -10.681469 2.706713 -30.544956 -1.773617 7.210303 37.107205 18.155403 -17.955918 -6.173853 0.000000 0.000000 0.000000 -0.556558 -23.293675 7.072675 -44.405399 -39.240029 5.361057 40.323272 -64.914966 -22.753671 0.000000 0.000000 0.000000 11.047028 12.357428 5.993542 22.848157 36.858878 1.211445 -52.818790 62.298115 -28.339372 0.000000 0.000000 0.000000 
-0.004179 0.377988 -0.002121 2.436559 -11.135056 -16.065644 12.820317 7.730329 -73.136466 -5.088682 13.823716 151.773063 6.270258 8.844016 -18.300272 0.000000 0.000000 0.000000 -25.210052 -3.359523 -73.980346 13.180932 -32.731000 143.425162 -9.128001 -26.966026 -23.693288 0.000000 0.000000 0.000000 7.474405 -4.442979 87.376861 -10.741855 2.741680 -30.454241 -2.210976 7.074798 37.537390 18.339057 -18.223070 -6.223679 0.000000 0.000000 0.000000 0.940524 -23.215484 6.781008 -44.663355 -39.988461 5.668691 40.051295 -62.252969 -21.378160 0.000000 0.000000 0.000000 10.935475 11.802887 5.734274 21.660526 35.884621 0.790874 -50.931518 61.813721 -26.998304 0.000000 0.000000 0.000000 
